<?xml version="1.0"?><svg width="788.87598" height="1095.6573" xmlns="http://www.w3.org/2000/svg" xmlns:xlink="http://www.w3.org/1999/xlink">
 <title>NotePad</title>
 <defs>
  <filter id="filter3845" color-interpolation-filters="sRGB">
   <feGaussianBlur stdDeviation="8.991094" id="feGaussianBlur3847"/>
  </filter>
 </defs>
 <metadata id="metadata7">image/svg+xml</metadata>
 <g>
  <title>Layer 1</title>
  <g id="layer1">
   <path id="path3763" d="m-44.121525,4.76776l0,1092.310975l832.418888,0l0,-1092.310975l-760.559402,0c1.0818,2.497276 1.709288,5.218297 1.709288,8.075577c0,11.955205 -10.44323,21.664605 -23.302029,21.664605c-12.858763,0 -23.267122,-9.7094 -23.267122,-21.664605c0,-2.85728 0.592625,-5.578301 1.674397,-8.075577l-28.674026,0l0.000008,0zm49.080763,73.036958c0.396813,-0.018723 0.784173,0 1.186031,0c12.858761,0 23.30201,9.676933 23.30201,21.632141c0,11.955208 -10.443249,21.632187 -23.30201,21.632187c-12.858783,0 -23.267139,-9.676979 -23.267139,-21.632187c0,-11.581604 9.77911,-21.052399 22.081108,-21.632141zm-47.894709,13.524124c12.85878,0 23.301983,9.709396 23.301983,21.664604c0,11.955215 -10.443203,21.632164 -23.301983,21.632164c-12.858788,0 -23.267143,-9.676949 -23.267143,-21.632164c0,-11.955208 10.408356,-21.664604 23.267143,-21.664604zm0,86.593536c12.85878,0 23.301983,9.709396 23.301983,21.664581c0,11.955215 -10.443203,21.632217 -23.301983,21.632217c-12.858788,0 -23.267143,-9.677002 -23.267143,-21.632217c0,-11.955185 10.408356,-21.664581 23.267143,-21.664581zm0,86.593552c12.85878,0 23.301983,9.676971 23.301983,21.632141c0,11.955231 -10.443203,21.664612 -23.301983,21.664612c-12.858788,0 -23.267143,-9.709381 -23.267143,-21.664612c0,-11.95517 10.408356,-21.632141 23.267143,-21.632141zm0,86.593506c12.85878,0 23.301983,9.676941 23.301983,21.632141c0,11.955292 -10.443203,21.664612 -23.301983,21.664612c-12.858788,0 -23.267143,-9.70932 -23.267143,-21.664612c0,-11.9552 10.408356,-21.632141 23.267143,-21.632141zm-1.186054,86.593567c0.396866,-0.018707 0.78421,0 1.186054,0c12.85878,0 23.301983,9.677032 23.301983,21.632111c0,11.955261 -10.443203,21.664581 -23.301983,21.664581c-12.858788,0 -23.267143,-9.70932 -23.267143,-21.664581c0,-11.581573 9.779125,-21.052368 22.081089,-21.632111zm1.186054,86.561035c12.85878,0 23.301983,9.709412 23.301983,21.664612c0,11.955261 -10.443203,21.632202 -23.301983,21.632202c-12.858788,0 -23.267143,-9.676941 -23.267143,-21.632202c0,-11.9552 10.408356,-21.664612 23.267143,-21.664612zm0,86.593567c12.85878,0 23.301983,9.709412 23.301983,21.664612c0,11.955139 -10.443203,21.63208 -23.301983,21.63208c-12.858788,0 -23.267143,-9.676941 -23.267143,-21.63208c0,-11.9552 10.408356,-21.664612 23.267143,-21.664612zm0,86.593567c12.85878,0 23.301983,9.676941 23.301983,21.632141c0,11.955261 -10.443203,21.664551 -23.301983,21.664551c-12.858788,0 -23.267143,-9.70929 -23.267143,-21.664551c0,-11.9552 10.408356,-21.632141 23.267143,-21.632141zm0,86.593445c12.85878,0 23.301983,9.676941 23.301983,21.632202c0,11.955261 -10.443203,21.664551 -23.301983,21.664551c-12.858788,0 -23.267143,-9.70929 -23.267143,-21.664551c0,-11.955261 10.408356,-21.632202 23.267143,-21.632202zm0,86.593628c12.85878,0 23.301983,9.676819 23.301983,21.63208c0,11.955261 -10.443203,21.664612 -23.301983,21.664612c-12.858788,0 -23.267143,-9.709351 -23.267143,-21.664612c0,-11.955261 10.408356,-21.63208 23.267143,-21.63208zm0,86.561035c12.85878,0 23.301983,9.709351 23.301983,21.664673c0,11.9552 -10.443203,21.632141 -23.301983,21.632141c-12.858788,0 -23.267143,-9.676941 -23.267143,-21.632141c0,-11.955322 10.408356,-21.664673 23.267143,-21.664673z" filter="url(#filter3845)" fill="#000000"/>
   <g id="g3804">
    <path id="rect2816" d="m-49.702396,-0.421086l0,1092.310856l832.418888,0l0,-1092.310856l-760.559399,0c1.081781,2.497288 1.709276,5.21832 1.709276,8.075597c0,11.955195 -10.443241,21.664596 -23.302012,21.664596c-12.858784,0 -23.267123,-9.7094 -23.267123,-21.664596c0,-2.857288 0.59259,-5.57831 1.674398,-8.075597l-28.674028,0zm49.080725,73.036961c0.396833,-0.018692 0.784192,0 1.186029,0c12.858771,0 23.302012,9.676941 23.302012,21.632172c0,11.955185 -10.443241,21.632156 -23.302012,21.632156c-12.858784,0 -23.267123,-9.676971 -23.267123,-21.632156c0,-11.581604 9.779109,-21.052429 22.081095,-21.632172zm1.186029,86.561096c12.858771,0 23.302012,9.709381 23.302012,21.664597c0,11.955185 -10.443241,21.632156 -23.302012,21.632156c-12.858784,0 -23.267123,-9.676971 -23.267123,-21.632156c0,-11.955215 10.408347,-21.664597 23.267123,-21.664597zm0,86.593536c12.858771,0 23.302012,9.709381 23.302012,21.664581c0,11.9552 -10.443241,21.632202 -23.302012,21.632202c-12.858784,0 -23.267123,-9.677002 -23.267123,-21.632202c0,-11.9552 10.408347,-21.664581 23.267123,-21.664581zm0,86.593536c12.858771,0 23.302012,9.676941 23.302012,21.632172c0,11.95517 -10.443241,21.664581 -23.302012,21.664581c-12.858784,0 -23.267123,-9.709412 -23.267123,-21.664581c0,-11.955231 10.408347,-21.632172 23.267123,-21.632172zm0,86.593506c12.858771,0 23.302012,9.677002 23.302012,21.632172c0,11.9552 -10.443241,21.664581 -23.302012,21.664581c-12.858784,0 -23.267123,-9.709381 -23.267123,-21.664581c0,-11.95517 10.408347,-21.632172 23.267123,-21.632172zm-1.186029,86.593567c0.396833,-0.018738 0.784192,0 1.186029,0c12.858771,0 23.302012,9.676971 23.302012,21.632111c0,11.9552 -10.443241,21.664612 -23.302012,21.664612c-12.858784,0 -23.267123,-9.709412 -23.267123,-21.664612c0,-11.581543 9.779109,-21.052368 22.081095,-21.632111zm1.186029,86.561066c12.858771,0 23.302012,9.709473 23.302012,21.664612c0,11.9552 -10.443241,21.632202 -23.302012,21.632202c-12.858784,0 -23.267123,-9.677002 -23.267123,-21.632202c0,-11.955139 10.408347,-21.664612 23.267123,-21.664612zm0,86.593506c12.858771,0 23.302012,9.709473 23.302012,21.664612c0,11.9552 -10.443241,21.632202 -23.302012,21.632202c-12.858784,0 -23.267123,-9.677002 -23.267123,-21.632202c0,-11.955139 10.408347,-21.664612 23.267123,-21.664612zm0,86.593506c12.858771,0 23.302012,9.677002 23.302012,21.632263c0,11.955139 -10.443241,21.664612 -23.302012,21.664612c-12.858784,0 -23.267123,-9.709473 -23.267123,-21.664612c0,-11.955261 10.408347,-21.632263 23.267123,-21.632263zm0,86.593506c12.858771,0 23.302012,9.677002 23.302012,21.632202c0,11.955261 -10.443241,21.664734 -23.302012,21.664734c-12.858784,0 -23.267123,-9.709473 -23.267123,-21.664734c0,-11.9552 10.408347,-21.632202 23.267123,-21.632202zm0,86.593689c12.858771,0 23.302012,9.67688 23.302012,21.632141c0,11.955139 -10.443241,21.664612 -23.302012,21.664612c-12.858784,0 -23.267123,-9.709473 -23.267123,-21.664612c0,-11.955261 10.408347,-21.632141 23.267123,-21.632141zm0,86.560974c12.858771,0 23.302012,9.709351 23.302012,21.664551c0,11.955322 -10.443241,21.632202 -23.302012,21.632202c-12.858784,0 -23.267123,-9.67688 -23.267123,-21.632202c0,-11.9552 10.408347,-21.664551 23.267123,-21.664551z" fill="#fff6d5"/>
    <g id="g3777">
     <path d="m92.374763,-0.255718l0,1092.197979" id="path2880" stroke-miterlimit="4" stroke-width="3" stroke="#ff5555" fill="none"/>
     <path id="path3656" d="m781.220459,139.205154l-688.165947,0" stroke-miterlimit="4" stroke-width="1.758296" stroke="#ff5555" fill="none"/>
     <path d="m781.220459,1006.827148l-688.165947,0" id="path3658" stroke-miterlimit="4" stroke-width="1.758296" stroke="#ff5555" fill="none"/>
     <path d="m781.218933,554.15863l-688.165894,0" id="path3660" stroke-miterlimit="4" stroke-width="1.758296" stroke="#5f8dd3" fill="none"/>
     <use transform="matrix(1.11626 0 0 1.03783 -77.0681 -14.4453)" x="0" y="-36.347813" xlink:href="#path3660" id="use3682" width="744.09448" height="1052.3622"/>
     <use transform="matrix(1.11626 0 0 1.03783 -77.0681 -14.4453)" x="0" y="-72.695656" xlink:href="#path3660" id="use3684" width="744.09448" height="1052.3622"/>
     <use transform="matrix(1.11626 0 0 1.03783 -77.0681 -14.4453)" x="0" y="-109.043488" xlink:href="#path3660" id="use3686" width="744.09448" height="1052.3622"/>
     <use transform="matrix(1.11626 0 0 1.03783 -77.0681 -14.4453)" x="0" y="-145.391327" xlink:href="#path3660" id="use3688" width="744.09448" height="1052.3622"/>
     <use transform="matrix(1.11626 0 0 1.03783 -77.0681 -14.4453)" x="0" y="-181.739166" xlink:href="#path3660" id="use3690" width="744.09448" height="1052.3622"/>
     <use transform="matrix(1.11626 0 0 1.03783 -77.0681 -14.4453)" x="0" y="-218.087006" xlink:href="#path3660" id="use3692" width="744.09448" height="1052.3622"/>
     <use transform="matrix(1.11626 0 0 1.03783 -77.0681 -14.4453)" x="0" y="-254.434845" xlink:href="#path3660" id="use3694" width="744.09448" height="1052.3622"/>
     <use transform="matrix(1.11626 0 0 1.03783 -77.0681 -14.4453)" x="0" y="-290.782684" xlink:href="#path3660" id="use3696" width="744.09448" height="1052.3622"/>
     <use transform="matrix(1.11626 0 0 1.03783 -77.0681 -14.4453)" x="0" y="-327.130524" xlink:href="#path3660" id="use3698" width="744.09448" height="1052.3622"/>
     <use transform="matrix(1.11626 0 0 1.03783 -77.0681 -14.4453)" x="0" y="-363.478363" xlink:href="#path3660" id="use3700" width="744.09448" height="1052.3622"/>
     <use transform="matrix(1.11626 0 0 1.03783 -77.0681 -14.4453)" id="use3702" xlink:href="#path3660" y="36.347843" x="0" width="744.09448" height="1052.3622"/>
     <use transform="matrix(1.11626 0 0 1.03783 -77.0681 -14.4453)" height="1052.3622" width="744.09448" x="0" y="109.04351" xlink:href="#path3660" id="use3704"/>
     <use transform="matrix(1.11626 0 0 1.03783 -77.0681 -14.4453)" id="use3706" xlink:href="#path3660" y="145.391357" x="0" width="744.09448" height="1052.3622"/>
     <use transform="matrix(1.11626 0 0 1.03783 -77.0681 -14.4453)" height="1052.3622" width="744.09448" x="0" y="181.739197" xlink:href="#path3660" id="use3708"/>
     <use transform="matrix(1.11626 0 0 1.03783 -77.0681 -14.4453)" id="use3710" xlink:href="#path3660" y="218.087036" x="0" width="744.09448" height="1052.3622"/>
     <use transform="matrix(1.11626 0 0 1.03783 -77.0681 -14.4453)" height="1052.3622" width="744.09448" x="0" y="254.434875" xlink:href="#path3660" id="use3712"/>
     <use transform="matrix(1.11626 0 0 1.03783 -77.0681 -14.4453)" id="use3714" xlink:href="#path3660" y="290.782715" x="0" width="744.09448" height="1052.3622"/>
     <use transform="matrix(1.11626 0 0 1.03783 -77.0681 -14.4453)" height="1052.3622" width="744.09448" x="0" y="327.130524" xlink:href="#path3660" id="use3716"/>
     <use transform="matrix(1.11626 0 0 1.03783 -77.0681 -14.4453)" id="use3718" xlink:href="#path3660" y="399.826172" x="0" width="744.09448" height="1052.3622"/>
     <use transform="matrix(1.11626 0 0 1.03783 -77.0681 -14.4453)" id="use3720" xlink:href="#path3660" y="72.695671" x="0" width="744.09448" height="1052.3622"/>
     <use transform="matrix(1.11626 0 0 1.03783 -77.0681 -14.4453)" height="1052.3622" width="744.09448" x="0" y="363.478363" xlink:href="#path3660" id="use3722"/>
    </g>
   </g>
  </g>
 </g>
</svg>